<svg width="86" height="14" viewBox="0 0 86 14" fill="none" xmlns="http://www.w3.org/2000/svg">
<path d="M4.86 13.43C3.98667 13.43 3.29 13.3 2.77 13.04C2.25667 12.7733 1.88667 12.3767 1.66 11.85C1.43333 11.3233 1.32 10.6733 1.32 9.9V4.41H4.36V9.41C4.36 9.89 4.46667 10.2433 4.68 10.47C4.9 10.69 5.30667 10.8 5.9 10.8C6.22667 10.8 6.55 10.7633 6.87 10.69C7.19 10.6167 7.48 10.5233 7.74 10.41L7.48 12.94C7.14 13.0867 6.74667 13.2033 6.3 13.29C5.86 13.3833 5.38 13.43 4.86 13.43ZM0 5.82V3.42H7.65L7.38 5.82H0ZM1.36 3.64L1.35 1.1L4.38 0.810001L4.27 3.64H1.36Z" fill="#00B188"/>
<path d="M13.7788 13.46C11.9921 13.46 10.6721 13.0633 9.81875 12.27C8.96542 11.47 8.53875 10.3067 8.53875 8.78V7.76C8.53875 6.25333 8.93875 5.1 9.73875 4.3C10.5388 3.49333 11.7021 3.09 13.2288 3.09C14.2554 3.09 15.1087 3.26667 15.7887 3.62C16.4754 3.96667 16.9888 4.46333 17.3288 5.11C17.6754 5.75667 17.8488 6.53333 17.8488 7.44V7.77C17.8488 8.02333 17.8354 8.28333 17.8088 8.55C17.7887 8.81 17.7588 9.05333 17.7188 9.28H14.9587C14.9854 8.89333 15.0021 8.53 15.0088 8.19C15.0154 7.84333 15.0188 7.53 15.0188 7.25C15.0188 6.84333 14.9554 6.50333 14.8288 6.23C14.7021 5.95 14.5054 5.73667 14.2388 5.59C13.9788 5.44333 13.6421 5.37 13.2288 5.37C12.6154 5.37 12.1654 5.53667 11.8787 5.87C11.5988 6.19667 11.4587 6.66333 11.4587 7.27V8.17L11.4788 8.5V9.2C11.4788 9.45333 11.5188 9.69333 11.5988 9.92C11.6854 10.1467 11.8321 10.3467 12.0387 10.52C12.2521 10.6867 12.5421 10.82 12.9088 10.92C13.2821 11.0133 13.7554 11.06 14.3288 11.06C14.9354 11.06 15.5188 11.0033 16.0788 10.89C16.6388 10.77 17.1754 10.61 17.6888 10.41L17.4388 12.71C16.9854 12.9433 16.4488 13.1267 15.8288 13.26C15.2088 13.3933 14.5254 13.46 13.7788 13.46ZM10.1588 9.28V7.39H17.0988V9.28H10.1588Z" fill="#00B188"/>
<path d="M23.7442 13.47C22.1842 13.47 21.0276 13.06 20.2742 12.24C19.5209 11.42 19.1442 10.2667 19.1442 8.78V7.76C19.1442 6.3 19.5209 5.16 20.2742 4.34C21.0276 3.52 22.1809 3.11 23.7342 3.11C24.1342 3.11 24.5076 3.14 24.8542 3.2C25.2009 3.25333 25.5209 3.33 25.8142 3.43C26.1076 3.53 26.3642 3.63667 26.5842 3.75L26.8342 6.28C26.5076 6.09333 26.1476 5.94 25.7542 5.82C25.3609 5.69333 24.9176 5.63 24.4242 5.63C23.6509 5.63 23.0909 5.81667 22.7442 6.19C22.3976 6.56333 22.2242 7.10333 22.2242 7.81V8.66C22.2242 9.38 22.4076 9.93333 22.7742 10.32C23.1409 10.7067 23.7142 10.9 24.4942 10.9C24.9809 10.9 25.4176 10.8433 25.8042 10.73C26.1976 10.61 26.5709 10.4567 26.9242 10.27L26.6842 12.81C26.3376 12.9967 25.9109 13.1533 25.4042 13.28C24.8976 13.4067 24.3442 13.47 23.7442 13.47Z" fill="#00B188"/>
<path d="M34.7695 13.21V7.43C34.7695 7.07 34.7229 6.76 34.6295 6.5C34.5362 6.23333 34.3795 6.03 34.1595 5.89C33.9462 5.75 33.6462 5.68 33.2595 5.68C32.9462 5.68 32.6695 5.73667 32.4295 5.85C32.1895 5.95667 31.9895 6.10667 31.8295 6.3C31.6762 6.48667 31.5562 6.7 31.4695 6.94L30.8495 5.51H31.5595C31.6595 5.06333 31.8295 4.66333 32.0695 4.31C32.3095 3.95667 32.6395 3.67667 33.0595 3.47C33.4862 3.25667 34.0195 3.15 34.6595 3.15C35.3929 3.15 35.9929 3.29333 36.4595 3.58C36.9262 3.86 37.2695 4.28 37.4895 4.84C37.7162 5.4 37.8295 6.1 37.8295 6.94V13.21H34.7695ZM28.4495 13.21V0H31.4895V2.94L31.4395 6.18L31.5095 6.42V13.21H28.4495Z" fill="#00B188"/>
<path d="M46.32 13.12V7.34C46.32 6.98 46.2733 6.67 46.18 6.41C46.0867 6.14333 45.93 5.94 45.71 5.8C45.49 5.66 45.19 5.59 44.81 5.59C44.4967 5.59 44.22 5.64667 43.98 5.76C43.74 5.86667 43.5367 6.01667 43.37 6.21C43.21 6.39667 43.09 6.61 43.01 6.85L42.54 5.42H43.06C43.1667 4.97333 43.34 4.57333 43.58 4.22C43.8267 3.86667 44.1633 3.58667 44.59 3.38C45.0167 3.16667 45.5567 3.06 46.21 3.06C46.9433 3.06 47.5433 3.20333 48.01 3.49C48.4767 3.77 48.82 4.19 49.04 4.75C49.2667 5.31 49.38 6.01 49.38 6.85V13.12H46.32ZM40 13.12V3.29H43.04L42.94 5.75L43.06 6.04V13.12H40Z" fill="#33423E"/>
<path d="M56.2081 13.37C54.4215 13.37 53.1015 12.9733 52.2481 12.18C51.3948 11.38 50.9681 10.2167 50.9681 8.69V7.67C50.9681 6.16333 51.3681 5.01 52.1681 4.21C52.9681 3.40333 54.1315 3 55.6581 3C56.6848 3 57.5381 3.17667 58.2181 3.53C58.9048 3.87667 59.4181 4.37333 59.7581 5.02C60.1048 5.66667 60.2781 6.44333 60.2781 7.35V7.68C60.2781 7.93333 60.2648 8.19333 60.2381 8.46C60.2181 8.72 60.1881 8.96333 60.1481 9.19H57.3881C57.4148 8.80333 57.4315 8.44 57.4381 8.1C57.4448 7.75333 57.4481 7.44 57.4481 7.16C57.4481 6.75333 57.3848 6.41333 57.2581 6.14C57.1315 5.86 56.9348 5.64667 56.6681 5.5C56.4081 5.35333 56.0715 5.28 55.6581 5.28C55.0448 5.28 54.5948 5.44667 54.3081 5.78C54.0281 6.10667 53.8881 6.57333 53.8881 7.18V8.08L53.9081 8.41V9.11C53.9081 9.36333 53.9481 9.60333 54.0281 9.83C54.1148 10.0567 54.2615 10.2567 54.4681 10.43C54.6815 10.5967 54.9715 10.73 55.3381 10.83C55.7115 10.9233 56.1848 10.97 56.7581 10.97C57.3648 10.97 57.9481 10.9133 58.5081 10.8C59.0681 10.68 59.6048 10.52 60.1181 10.32L59.8681 12.62C59.4148 12.8533 58.8781 13.0367 58.2581 13.17C57.6381 13.3033 56.9548 13.37 56.2081 13.37ZM52.5881 9.19V7.3H59.5281V9.19H52.5881Z" fill="#33423E"/>
<path d="M63.0459 13.12L61.0759 3.29H64.1759L65.3959 10.96H65.5759L66.7759 3.53H70.5159L71.7359 10.96H71.9059L73.1359 3.29H76.2059L74.2359 13.12H69.8859L68.8959 6.86L68.7259 5.76H68.5859L68.4059 6.86L67.4159 13.12H63.0459Z" fill="#33423E"/>
<path d="M80.9609 13.36C80.1809 13.36 79.4776 13.29 78.8509 13.15C78.2243 13.0167 77.6876 12.86 77.2409 12.68L76.9809 10.11C77.4943 10.3233 78.0609 10.5167 78.6809 10.69C79.3076 10.8567 79.9843 10.94 80.7109 10.94C81.2909 10.94 81.7009 10.88 81.9409 10.76C82.1876 10.6333 82.3109 10.44 82.3109 10.18V10.14C82.3109 9.96 82.2476 9.81333 82.1209 9.7C82.0009 9.58 81.7876 9.47333 81.4809 9.38C81.1809 9.28667 80.7576 9.17667 80.2109 9.05C79.3909 8.85667 78.7409 8.63 78.2609 8.37C77.7809 8.10333 77.4376 7.78 77.2309 7.4C77.0309 7.01333 76.9309 6.55667 76.9309 6.03V5.95C76.9309 4.97667 77.2776 4.25 77.9709 3.77C78.6643 3.28333 79.6843 3.04 81.0309 3.04C81.7909 3.04 82.4743 3.11 83.0809 3.25C83.6876 3.39 84.1976 3.55667 84.6109 3.75L84.8709 6.14C84.3909 5.92667 83.8543 5.75 83.2609 5.61C82.6743 5.47 82.0576 5.4 81.4109 5.4C81.0176 5.4 80.7076 5.42667 80.4809 5.48C80.2609 5.53333 80.1043 5.61 80.0109 5.71C79.9243 5.81 79.8809 5.93333 79.8809 6.08V6.11C79.8809 6.27 79.9343 6.40667 80.0409 6.52C80.1476 6.63333 80.3409 6.74 80.6209 6.84C80.9076 6.94 81.3176 7.05333 81.8509 7.18C82.6776 7.36 83.3443 7.56667 83.8509 7.8C84.3576 8.02667 84.7276 8.32333 84.9609 8.69C85.1943 9.05 85.3109 9.53 85.3109 10.13V10.22C85.3109 11.28 84.9543 12.07 84.2409 12.59C83.5276 13.1033 82.4343 13.36 80.9609 13.36Z" fill="#33423E"/>
</svg>
